<?xml version="1.0" standalone="no"?>
<!DOCTYPE svg PUBLIC "-//W3C//DTD SVG 20010904//EN"
 "http://www.w3.org/TR/2001/REC-SVG-20010904/DTD/svg10.dtd">
<svg version="1.0" xmlns="http://www.w3.org/2000/svg"
 width="391.000000pt" height="192.000000pt" viewBox="0 0 391.000000 192.000000"
 preserveAspectRatio="xMidYMid meet">

<g transform="translate(0.000000,192.000000) scale(0.100000,-0.100000)"
fill="#000000" stroke="none">
<path d="M740 1363 c-23 -106 4 -200 75 -262 54 -47 173 -103 335 -156 162
-54 319 -123 407 -181 73 -49 216 -185 290 -278 31 -39 61 -75 65 -81 13 -14
-16 64 -42 116 -69 136 -192 281 -355 416 -63 51 -252 147 -410 208 -223 85
-303 141 -327 230 -7 25 -15 45 -19 45 -4 0 -13 -26 -19 -57z"/>
<path d="M3180 1376 c-9 -32 -27 -59 -60 -90 -56 -52 -109 -80 -285 -151 -226
-92 -276 -114 -305 -138 -15 -12 -57 -42 -91 -67 -84 -59 -224 -199 -276 -276
-53 -78 -142 -254 -129 -254 2 0 35 39 74 88 185 230 338 332 671 447 332 114
415 172 439 306 10 54 0 154 -17 172 -5 4 -14 -12 -21 -37z"/>
<path d="M286 1063 c-10 -55 8 -152 38 -211 66 -131 193 -178 551 -202 304
-21 437 -50 646 -143 69 -30 234 -134 314 -197 84 -66 91 -69 69 -31 -25 43
-147 179 -209 234 -73 64 -207 152 -302 197 -191 91 -372 137 -633 161 -156
14 -251 33 -315 64 -69 33 -90 52 -124 114 l-29 54 -6 -40z"/>
<path d="M3646 1068 c-10 -41 -67 -98 -125 -128 -70 -35 -168 -56 -326 -70
-423 -38 -723 -160 -973 -395 -85 -80 -182 -195 -182 -216 0 -5 28 13 63 39
230 180 474 292 707 326 58 8 179 20 270 26 361 23 499 77 563 219 23 51 38
221 19 221 -5 0 -12 -10 -16 -22z"/>
</g>
</svg>
